<svg width="108" height="30" viewBox="0 0 108 30" fill="none" xmlns="http://www.w3.org/2000/svg">
<g clip-path="url(#clip0_1630_5008)">
<path d="M9.39059 29.9421V24.0923H9.23665C8.33864 24.7337 7.36366 25.0544 6.31171 25.0544C4.00255 25.0544 2.37331 24.2462 1.42398 22.6298C0.474661 20.9877 0 18.6016 0 15.4714C0 12.3155 0.525976 9.91657 1.57793 8.2745C2.62988 6.60677 4.09235 5.77291 5.96534 5.77291C7.83832 5.77291 9.17251 6.31171 9.96788 7.38932H10.1603L10.5452 6.23474H15.8562V29.9421H9.39059ZM7.81267 11.1994C7.27386 11.1994 6.91466 11.533 6.73506 12.2001C6.55546 12.8415 6.46565 13.778 6.46565 15.0096C6.46565 16.2155 6.47848 17.0365 6.50414 17.4727C6.5298 17.9088 6.58111 18.3578 6.65808 18.8197C6.76071 19.2559 6.90183 19.5637 7.08143 19.7433C7.28669 19.8973 7.60741 19.9743 8.04358 19.9743C8.50541 19.9743 8.98008 19.8588 9.46757 19.6279V11.6613C8.92876 11.3534 8.37713 11.1994 7.81267 11.1994Z" fill="url(#paint0_linear_1630_5008)"/>
<path d="M22.7383 25.0544C19.6851 25.0544 18.1585 23.361 18.1585 19.9743V6.23474H24.7011V18.3963C24.7011 19.0378 24.9834 19.3585 25.5478 19.3585C26.2662 19.3585 26.8692 19.1789 27.3567 18.8197V6.23474H33.0589L33.8223 9.29077V24.5926H27.703V23.2456H27.5491C26.1379 24.4515 24.5343 25.0544 22.7383 25.0544Z" fill="url(#paint1_linear_1630_5008)"/>
<path d="M50.0171 11.0455L49.8247 19.0121C49.8247 19.4996 49.9401 19.8331 50.1711 20.0127C50.336 20.1117 50.5004 20.2186 50.7535 20.2824C50.994 21.206 51.0231 21.3176 51.2345 22.1295C51.5575 23.3695 51.7156 24.0538 51.9561 25.0544C50.3431 25.0544 48.5546 25.0544 48.4007 25.0544C46.5021 25.0544 45.2962 24.4002 44.783 23.0916H44.5906C43.6413 24.4002 42.1788 25.0544 40.2032 25.0544C38.6894 25.0544 37.522 24.5669 36.7009 23.5919C35.9056 22.617 35.5079 21.2828 35.5079 19.5894C35.5079 17.4598 36.1621 15.9845 37.4707 15.1635C38.8048 14.3425 40.8959 13.8037 43.7439 13.5471V12.6234C43.7439 11.905 43.3077 10.8242 42.5893 10.8242C41.3578 10.8242 39.1788 11.2828 36.5617 12.0269L35.1185 6.25398C38.005 6.01344 41.1159 5.77291 43.2968 5.77291C45.4777 5.77291 47.8362 6.19625 48.7086 7.04295C49.5809 7.88964 50.0171 9.22382 50.0171 11.0455ZM42.5893 20.5515C43.5386 20.5515 44.0133 20.0512 44.0133 19.0506V17.1648C43.064 17.2931 42.3841 17.4983 41.9735 17.7806C41.5887 18.0371 41.3962 18.4861 41.3962 19.1276C41.3962 20.0769 41.7939 20.5515 42.5893 20.5515Z" fill="url(#paint2_linear_1630_5008)"/>
<path d="M52.8861 20.4361V0H59.2363V18.3963C59.2363 18.8325 59.3261 19.1404 59.5057 19.32C59.711 19.4996 59.7887 19.6184 60.1344 19.6184C60.856 22.37 60.856 22.37 61.5777 25.0544H57.9278C56.2344 25.0544 54.9644 24.708 54.1177 24.0153C53.8867 23.8131 53.6881 23.5734 53.5221 23.2961C53.2815 22.37 53.1588 21.8889 52.8968 20.8888C52.8897 20.742 52.8861 20.5911 52.8861 20.4361Z" fill="url(#paint3_linear_1630_5008)"/>
<path d="M61.5608 15.3944C61.5608 12.0076 62.2023 9.55737 63.4851 8.04358C64.7936 6.5298 66.8206 5.77291 69.5659 5.77291C72.3369 5.77291 74.351 6.51697 75.6082 8.0051C76.8654 9.49322 77.494 11.9435 77.494 15.3559C77.494 18.7427 76.8783 21.2058 75.6467 22.7453C74.4152 24.2847 72.4011 25.0544 69.6044 25.0544C66.8078 25.0544 64.768 24.2847 63.4851 22.7453C63.1173 22.3038 62.8022 21.7876 62.5398 21.1964C62.1437 19.6184 62.1489 19.6184 61.6873 17.7998C61.603 17.0579 61.5608 16.2561 61.5608 15.3944ZM70.7975 11.7382C70.6435 11.2251 70.233 10.9685 69.5659 10.9685C68.8988 10.9685 68.4755 11.2251 68.2959 11.7382C68.1163 12.2514 68.0265 13.329 68.0265 14.9711V15.8947C68.0265 17.7164 68.1163 18.8966 68.2959 19.4355C68.4755 19.9743 68.886 20.2437 69.5274 20.2437C70.1945 20.2437 70.6179 19.9743 70.7975 19.4355C70.9771 18.8966 71.0669 17.7934 71.0669 16.1257V15.0096C71.0669 13.3418 70.9771 12.2514 70.7975 11.7382Z" fill="url(#paint4_linear_1630_5008)"/>
<path d="M85.8843 14.3168V24.6696H79.4956V6.23474H85.1146L85.4994 7.35083H85.6534C86.2435 6.68374 86.8336 6.2604 87.4237 6.0808C88.0395 5.87554 88.0368 5.90774 88.3474 5.90774L89.9094 11.9307H88.3474C87.3468 11.9307 86.6797 12.0846 86.3461 12.3925C86.0382 12.7004 85.8843 13.3418 85.8843 14.3168Z" fill="url(#paint5_linear_1630_5008)"/>
<path d="M107.568 5.90774L102.796 24.8814C102.309 26.78 101.59 28.1014 100.641 28.8454C99.6917 29.6151 98.1394 30 95.9842 30H92.8476L91.5583 25.0353H93.7135C94.5859 25.0353 95.022 24.6889 95.022 23.9962C95.022 23.8422 94.9707 23.5087 94.8681 22.9955L90.4422 5.90774H97.2927L99.0246 17.4151H99.3709L101.257 5.90774H107.568Z" fill="url(#paint6_linear_1630_5008)"/>
</g>
<defs>
<linearGradient id="paint0_linear_1630_5008" x1="2.03361e-07" y1="17.7998" x2="107.761" y2="17.7998" gradientUnits="userSpaceOnUse">
<stop stop-color="#219EBC"/>
<stop offset="1" stop-color="#1A7E96"/>
</linearGradient>
<linearGradient id="paint1_linear_1630_5008" x1="2.03361e-07" y1="17.7998" x2="107.761" y2="17.7998" gradientUnits="userSpaceOnUse">
<stop stop-color="#219EBC"/>
<stop offset="1" stop-color="#1A7E96"/>
</linearGradient>
<linearGradient id="paint2_linear_1630_5008" x1="2.03361e-07" y1="17.7998" x2="107.761" y2="17.7998" gradientUnits="userSpaceOnUse">
<stop stop-color="#219EBC"/>
<stop offset="1" stop-color="#1A7E96"/>
</linearGradient>
<linearGradient id="paint3_linear_1630_5008" x1="2.03361e-07" y1="17.7998" x2="107.761" y2="17.7998" gradientUnits="userSpaceOnUse">
<stop stop-color="#219EBC"/>
<stop offset="1" stop-color="#1A7E96"/>
</linearGradient>
<linearGradient id="paint4_linear_1630_5008" x1="2.03361e-07" y1="17.7998" x2="107.761" y2="17.7998" gradientUnits="userSpaceOnUse">
<stop stop-color="#219EBC"/>
<stop offset="1" stop-color="#1A7E96"/>
</linearGradient>
<linearGradient id="paint5_linear_1630_5008" x1="2.03361e-07" y1="17.7998" x2="107.761" y2="17.7998" gradientUnits="userSpaceOnUse">
<stop stop-color="#219EBC"/>
<stop offset="1" stop-color="#1A7E96"/>
</linearGradient>
<linearGradient id="paint6_linear_1630_5008" x1="2.03361e-07" y1="17.7998" x2="107.761" y2="17.7998" gradientUnits="userSpaceOnUse">
<stop stop-color="#219EBC"/>
<stop offset="1" stop-color="#1A7E96"/>
</linearGradient>
<clipPath id="clip0_1630_5008">
<rect width="107.568" height="30" fill="white"/>
</clipPath>
</defs>
</svg>
