<svg width="17" height="16" viewBox="0 0 17 16" fill="none" xmlns="http://www.w3.org/2000/svg">
<g clip-path="url(#clip0_1630_5014)">
<path d="M14.5625 7.62187L8.65938 2.49844C8.61406 2.45937 8.55625 2.4375 8.49531 2.4375H7.1125C6.99688 2.4375 6.94375 2.58125 7.03125 2.65625L12.5031 7.40625H3.35938C3.29062 7.40625 3.23438 7.4625 3.23438 7.53125V8.46875C3.23438 8.5375 3.29062 8.59375 3.35938 8.59375H12.5016L7.02969 13.3438C6.94219 13.4203 6.99531 13.5625 7.11094 13.5625H8.54063C8.57031 13.5625 8.6 13.5516 8.62187 13.5312L14.5625 8.37813C14.6166 8.33109 14.66 8.27299 14.6897 8.20776C14.7194 8.14253 14.7348 8.07168 14.7348 8C14.7348 7.92832 14.7194 7.85747 14.6897 7.79224C14.66 7.72701 14.6166 7.66891 14.5625 7.62187V7.62187Z" fill="white"/>
</g>
<defs>
<clipPath id="clip0_1630_5014">
<rect width="16" height="16" fill="white" transform="translate(0.984375)"/>
</clipPath>
</defs>
</svg>
