<svg width="17" height="17" viewBox="0 0 17 17" fill="none" xmlns="http://www.w3.org/2000/svg">
<g clip-path="url(#clip0_1630_5010)">
<path d="M13.8955 8.12187L7.99238 2.99844C7.94707 2.95937 7.88926 2.9375 7.82832 2.9375H6.44551C6.32988 2.9375 6.27676 3.08125 6.36426 3.15625L11.8361 7.90625H2.69238C2.62363 7.90625 2.56738 7.9625 2.56738 8.03125V8.96875C2.56738 9.0375 2.62363 9.09375 2.69238 9.09375H11.8346L6.3627 13.8438C6.2752 13.9203 6.32832 14.0625 6.44395 14.0625H7.87363C7.90332 14.0625 7.93301 14.0516 7.95488 14.0312L13.8955 8.87813C13.9496 8.83109 13.993 8.77299 14.0227 8.70776C14.0524 8.64253 14.0678 8.57168 14.0678 8.5C14.0678 8.42832 14.0524 8.35747 14.0227 8.29224C13.993 8.22701 13.9496 8.16891 13.8955 8.12187V8.12187Z" fill="white"/>
</g>
<defs>
<clipPath id="clip0_1630_5010">
<rect width="16" height="16" fill="white" transform="translate(0.317383 0.5)"/>
</clipPath>
</defs>
</svg>
